# xmcd
#
# Track frame offsets:
#	150
#	23202
#	43707
#	61330
#	75422
#	100060
#	116870
#	140845
#	160637
#	176262
#	199007
#	217310
#	242720
#	258900
#	279700
#	302790
#
# Disc length: 4317 seconds
#
# Revision: 1
# Processed by: cddbd v1.5.1PL0 Copyright (c) Steve Scherf et al.
# Submitted via: CDex 1.50Beta5
#
DISCID=e310db10
DTITLE=北島三郎 - 北島三郎全曲集
DYEAR=2000
DGENRE=World
TTITLE0=橋
TTITLE1=風雪ながれ旅
TTITLE2=愛の道
TTITLE3=兄貴
TTITLE4=おやじの背中
TTITLE5=男の涙
TTITLE6=根っこ
TTITLE7=夫婦絶唱
TTITLE8=帰ろかな
TTITLE9=竹
TTITLE10=与作
TTITLE11=こころの母は北斗星
TTITLE12=さよなら妹よ
TTITLE13=息子
TTITLE14=のぼり坂
TTITLE15=2000年音頭
EXTD=
EXTT0=
EXTT1=
EXTT2=
EXTT3=
EXTT4=
EXTT5=
EXTT6=
EXTT7=
EXTT8=
EXTT9=
EXTT10=
EXTT11=
EXTT12=
EXTT13=
EXTT14=
EXTT15=
PLAYORDER=
